<?xml version="1.0" encoding="UTF-8"?><svg id="uuid-5195d2a0-c9fe-4e94-a328-8450a9ab15b6" xmlns="http://www.w3.org/2000/svg" width="518" height="230" viewBox="0 0 518 230"><defs><style>.uuid-e9264c45-a40c-4c51-b40e-a12b7e8941c1{fill:#fff;}.uuid-b2e90bca-339a-44ac-84f9-0989e745f201{fill:#e00;}</style></defs><rect class="uuid-b2e90bca-339a-44ac-84f9-0989e745f201" width="518" height="230" rx="20" ry="20"/><g id="uuid-9f655d1b-808e-490c-9bb8-2580d56b5d05"><path class="uuid-e9264c45-a40c-4c51-b40e-a12b7e8941c1" d="M168.6826772843,120.5467287846c6.313881721,0,15.4490813907-1.3021449684,15.4490813907-8.8121836511.0188756842-.5796051852-.0336697232-1.1593316647-.1564579359-1.7260969949l-3.7600655642-16.33231863c-.8680966456-3.5935132573-1.6302014339-5.2237175792-7.9390388574-8.3781362909-4.8956640016-2.5033467089-15.5601213961-6.636896777-18.7145401078-6.636896777-2.9373945504,0-3.7903506022,3.7853024541-7.2930183719,3.7853024541-3.3714428731,0-5.8747891007-2.8263591176-9.0292078125-2.8263591176-3.0282419633,0-5.0016462323,2.064251682-6.5258615849,6.3088371828,0,0-4.2445857415,11.9716495483-4.7896682937,13.7078409141-.0866367722.3188227057-.124080092.6490066326-.1110361548.9791328003,0,4.6533990997,18.3208654181,19.9106893683,42.8698132923,19.9106893683M185.1007951791,114.7829758386c.8731409431,4.1335515121.8731409431,4.5675998349.8731409431,5.1126804618,0,7.0658979143-7.9440908561,10.9874734131-18.3864759411,10.9874734131-23.6000962614.0151405937-44.2728942686-13.8138318087-44.2728942686-22.9540738506-.0013650408-1.272281572.2580061906-2.5313459293.7621067136-3.699501264-8.489171483.4239520266-19.4766429708,1.9380730082-19.4766429708,11.6385420467,0,15.888174011,37.6460928252,35.4708069138,67.4540866515,35.4708069138,22.8531320668,0,28.6168850127-10.3363970783,28.6168850127-18.4975120958,0-6.4198735782-5.5517769327-13.7078399515-15.5601175455-18.0584156249"/><path class="uuid-e9264c45-a40c-4c51-b40e-a12b7e8941c1" d="M396.9465038613,125.245553516c0,6.0009658492,3.6086673282,8.9181716577,10.1900354386,8.9181716577,2.026313559-.0504468256,4.0399971212-.3349721589,6.0009735504-.8479079037v-6.9599099077c-1.2533577551.3971979968-2.5613941549.5947688826-3.8761460164.5854619612-2.7102740927,0-3.7146360818-.8479079037-3.7146360818-3.3966797631v-10.6644573945h7.8532395926v-7.1668416235h-7.8532395926v-9.0847258898l-8.580018896,1.8573218915v7.2274039983h-5.698161676v7.1668416235h5.6779536811v12.36532135ZM370.1970331857,125.4070596c0-1.8573218915,1.8623700396-2.7607478726,4.6735916921-2.7607478726,1.7183264664.0099884792,3.4294137883.2234546781,5.0975283162.6359318905v3.6086557764c-1.6439018999.8978888057-3.4921325041,1.3551640006-5.3650378093,1.3273780077-2.7557112763,0-4.406082199-1.059883917-4.406082199-2.8112178019M372.8215157148,134.2697131803c3.0282419633,0,5.4710373678-.6359318905,7.7522920328-2.1752859114v1.7008639556h8.4891753336v-17.99785325c0-6.8438275301-4.6130293172-10.5988468715-12.3098109739-10.5988468715-4.3001134454,0-8.5497377085,1.0094139878-13.1223818409,3.0787118925l3.0787003407,6.3189298691c3.2906994577-1.3828960851,6.0564839266-2.2308039888,8.4942273324-2.2308039888,3.5329489572,0,5.3599858106,1.3778517876,5.3599858106,4.1941138869v1.3778517876c-2.0800372527-.5384344762-4.2208217094-.8064561002-6.3693997984-.7974379745-7.2223558502,0-11.5729276731,3.0282419633-11.5729276731,8.4437497019,0,4.936033784,3.9266351987,8.7011474963,10.1900354386,8.7011474963M326.156295971,133.8104279676h9.130147671v-14.5607960033h15.2875791573v14.5456554096h9.1553922621v-37.1565283503h-9.120059076v14.2781632442h-15.2875637549v-14.2781632442h-9.1301630734l-.0353331862,37.171668944ZM291.4021797656,119.7291059189c0-4.037655951,3.1846998992-7.1163678436,7.3788137861-7.1163678436,2.182032178-.0442434949,4.3008527623.7340954601,5.9353591768,2.1803302089v9.8165533413c-1.5994658746,1.5112407263-3.7359992593,2.3215243316-5.9353591768,2.2509927306-4.1386035108,0-7.3788137861-3.0787118925-7.3788137861-7.1113196955M304.8324254796,133.8154799663h8.4942119299v-39.0340428343l-8.580018896,1.8573218915v10.5635175359c-2.1841885189-1.2382556675-4.656171538-1.8788853007-7.1668454741-1.8573218915-8.1712074631,0-14.5961330401,6.3138836463-14.5961330401,14.3841474003-.0976668411,7.873855752,6.206164791,14.3360552219,14.0800282442,14.4337297642.0845439664.0010473656.1690879327.0013438625.2536473015.0008894906,2.7076248739.0129110912,5.3482645575-.8413618688,7.535271722-2.4377357046l-.0201617876,2.0894943478ZM265.8539141998,112.2241115337c2.705222094,0,4.9865075639,1.7513338849,5.8899373956,4.4565636801h-11.709208419c.8479040531-2.7910290601,2.9727161847-4.4565636801,5.8192710233-4.4565636801M251.3839579082,119.7947164419c0,8.1762517606,6.6873676689,14.5456554096,15.2825271586,14.5456554096,4.7240500695,0,8.1762594618-1.2769080784,11.7344376077-4.2496319643l-5.6830056799-5.0470699388c-1.3273818583,1.3828960851-3.2906840552,2.1248159822-5.622443305,2.1248159822-3.0014263237.0845362651-5.7454317494-1.6866321055-6.9043879797-4.4565636801h20.0116292268v-2.1349084278c0-8.9181716577-5.9959215517-15.338045236-14.1721656111-15.338045236-7.9627509062-.1201486204-14.5152394508,6.2375395513-14.6353784447,14.2002904576-.0017250727.1134312334-.0020947312.2268778693-.0011243778.3403168039M236.5809085548,104.4415306122c3.0282419633,0,4.7240500695,1.9077918208,4.7240500695,4.1941158122s-1.6958081063,4.1941119616-4.7240500695,4.1941119616h-9.0292078125v-8.3882277739h9.0292078125ZM218.4114567751,133.7952912245h9.130147671v-13.5362452724h6.9498097608l7.0103875382,13.5362414218h10.2203166261l-8.1762594618-14.8636232801c4.2510104823-1.7288655826,7.0240494981-5.8684432974,7.0053355394-10.4575295293,0-6.6873676689-5.2540016546-11.8353793915-13.1223818409-11.8353793915h-19.0173558328v37.1565360515Z"/></g></svg>